<svg width="100%" viewBox="0 0 680 680" role="img" xmlns="http://www.w3.org/2000/svg" style="">
<title style="fill:rgb(0, 0, 0);stroke:none;color:rgb(0, 0, 0);stroke-width:1.333333px;stroke-linecap:butt;stroke-linejoin:miter;opacity:1;font-family:&quot;Anthropic Sans&quot;, -apple-system, BlinkMacSystemFont, &quot;Segoe UI&quot;, sans-serif;font-size:16px;font-weight:400;text-anchor:start;dominant-baseline:auto">Wayraa logo</title>
<desc style="fill:rgb(0, 0, 0);stroke:none;color:rgb(0, 0, 0);stroke-width:1.333333px;stroke-linecap:butt;stroke-linejoin:miter;opacity:1;font-family:&quot;Anthropic Sans&quot;, -apple-system, BlinkMacSystemFont, &quot;Segoe UI&quot;, sans-serif;font-size:16px;font-weight:400;text-anchor:start;dominant-baseline:auto">Retro sunset logo with concentric arcs above horizon and wavy ocean lines below, clipped to a circle</desc>

<defs>
  <clipPath id="circleClip">
    <circle cx="340" cy="340" r="240"/>
  </clipPath>
</defs>

<g clip-path="url(#circleClip)" style="fill:rgb(0, 0, 0);stroke:none;color:rgb(0, 0, 0);stroke-width:1.333333px;stroke-linecap:butt;stroke-linejoin:miter;opacity:1;font-family:&quot;Anthropic Sans&quot;, -apple-system, BlinkMacSystemFont, &quot;Segoe UI&quot;, sans-serif;font-size:16px;font-weight:400;text-anchor:start;dominant-baseline:auto">

  
  <path d="M 105,340 A 235,235 0 0,1 575,340" fill="none" stroke="#c0392b" stroke-width="6" stroke-linecap="round" style="fill:none;stroke:rgb(192, 57, 43);color:rgb(0, 0, 0);stroke-width:8px;stroke-linecap:round;stroke-linejoin:miter;opacity:1;font-family:&quot;Anthropic Sans&quot;, -apple-system, BlinkMacSystemFont, &quot;Segoe UI&quot;, sans-serif;font-size:16px;font-weight:400;text-anchor:start;dominant-baseline:auto"/>
  <path d="M 124,340 A 216,216 0 0,1 556,340" fill="none" stroke="#c73d28" stroke-width="6" stroke-linecap="round" style="fill:none;stroke:rgb(199, 61, 40);color:rgb(0, 0, 0);stroke-width:8px;stroke-linecap:round;stroke-linejoin:miter;opacity:1;font-family:&quot;Anthropic Sans&quot;, -apple-system, BlinkMacSystemFont, &quot;Segoe UI&quot;, sans-serif;font-size:16px;font-weight:400;text-anchor:start;dominant-baseline:auto"/>
  <path d="M 145,340 A 195,195 0 0,1 535,340" fill="none" stroke="#ce4225" stroke-width="6" stroke-linecap="round" style="fill:none;stroke:rgb(206, 66, 37);color:rgb(0, 0, 0);stroke-width:8px;stroke-linecap:round;stroke-linejoin:miter;opacity:1;font-family:&quot;Anthropic Sans&quot;, -apple-system, BlinkMacSystemFont, &quot;Segoe UI&quot;, sans-serif;font-size:16px;font-weight:400;text-anchor:start;dominant-baseline:auto"/>
  <path d="M 168,340 A 172,172 0 0,1 512,340" fill="none" stroke="#d54820" stroke-width="5.5" stroke-linecap="round" style="fill:none;stroke:rgb(213, 72, 32);color:rgb(0, 0, 0);stroke-width:7.333333px;stroke-linecap:round;stroke-linejoin:miter;opacity:1;font-family:&quot;Anthropic Sans&quot;, -apple-system, BlinkMacSystemFont, &quot;Segoe UI&quot;, sans-serif;font-size:16px;font-weight:400;text-anchor:start;dominant-baseline:auto"/>
  <path d="M 194,340 A 146,146 0 0,1 486,340" fill="none" stroke="#dc501a" stroke-width="5.5" stroke-linecap="round" style="fill:none;stroke:rgb(220, 80, 26);color:rgb(0, 0, 0);stroke-width:7.333333px;stroke-linecap:round;stroke-linejoin:miter;opacity:1;font-family:&quot;Anthropic Sans&quot;, -apple-system, BlinkMacSystemFont, &quot;Segoe UI&quot;, sans-serif;font-size:16px;font-weight:400;text-anchor:start;dominant-baseline:auto"/>
  <path d="M 222,340 A 118,118 0 0,1 458,340" fill="none" stroke="#e35a14" stroke-width="5" stroke-linecap="round" style="fill:none;stroke:rgb(227, 90, 20);color:rgb(0, 0, 0);stroke-width:6.666667px;stroke-linecap:round;stroke-linejoin:miter;opacity:1;font-family:&quot;Anthropic Sans&quot;, -apple-system, BlinkMacSystemFont, &quot;Segoe UI&quot;, sans-serif;font-size:16px;font-weight:400;text-anchor:start;dominant-baseline:auto"/>
  <path d="M 252,340 A 88,88 0 0,1 428,340" fill="none" stroke="#ea660e" stroke-width="5" stroke-linecap="round" style="fill:none;stroke:rgb(234, 102, 14);color:rgb(0, 0, 0);stroke-width:6.666667px;stroke-linecap:round;stroke-linejoin:miter;opacity:1;font-family:&quot;Anthropic Sans&quot;, -apple-system, BlinkMacSystemFont, &quot;Segoe UI&quot;, sans-serif;font-size:16px;font-weight:400;text-anchor:start;dominant-baseline:auto"/>
  <path d="M 282,340 A 58,58 0 0,1 398,340" fill="none" stroke="#f07808" stroke-width="4.5" stroke-linecap="round" style="fill:none;stroke:rgb(240, 120, 8);color:rgb(0, 0, 0);stroke-width:6px;stroke-linecap:round;stroke-linejoin:miter;opacity:1;font-family:&quot;Anthropic Sans&quot;, -apple-system, BlinkMacSystemFont, &quot;Segoe UI&quot;, sans-serif;font-size:16px;font-weight:400;text-anchor:start;dominant-baseline:auto"/>
  <path d="M 306,340 A 34,34 0 0,1 374,340" fill="none" stroke="#f59000" stroke-width="4" stroke-linecap="round" style="fill:none;stroke:rgb(245, 144, 0);color:rgb(0, 0, 0);stroke-width:5.333333px;stroke-linecap:round;stroke-linejoin:miter;opacity:1;font-family:&quot;Anthropic Sans&quot;, -apple-system, BlinkMacSystemFont, &quot;Segoe UI&quot;, sans-serif;font-size:16px;font-weight:400;text-anchor:start;dominant-baseline:auto"/>

  
  <path d="M 294,340 A 46,46 0 0,1 386,340 Z" fill="#e85d04" style="fill:rgb(232, 93, 4);stroke:none;color:rgb(0, 0, 0);stroke-width:1.333333px;stroke-linecap:butt;stroke-linejoin:miter;opacity:1;font-family:&quot;Anthropic Sans&quot;, -apple-system, BlinkMacSystemFont, &quot;Segoe UI&quot;, sans-serif;font-size:16px;font-weight:400;text-anchor:start;dominant-baseline:auto"/>
  <ellipse cx="340" cy="340" rx="32" ry="16" fill="#f4a020" style="fill:rgb(244, 160, 32);stroke:none;color:rgb(0, 0, 0);stroke-width:1.333333px;stroke-linecap:butt;stroke-linejoin:miter;opacity:1;font-family:&quot;Anthropic Sans&quot;, -apple-system, BlinkMacSystemFont, &quot;Segoe UI&quot;, sans-serif;font-size:16px;font-weight:400;text-anchor:start;dominant-baseline:auto"/>

  
  <path d="M 108,352 Q 160,342 214,354 Q 268,366 322,352 Q 376,338 430,352 Q 484,366 538,354 Q 562,348 572,351" fill="none" stroke="#5bc8e8" stroke-width="3" stroke-linecap="round" style="fill:none;stroke:rgb(91, 200, 232);color:rgb(0, 0, 0);stroke-width:4px;stroke-linecap:round;stroke-linejoin:miter;opacity:1;font-family:&quot;Anthropic Sans&quot;, -apple-system, BlinkMacSystemFont, &quot;Segoe UI&quot;, sans-serif;font-size:16px;font-weight:400;text-anchor:start;dominant-baseline:auto"/>
  <path d="M 104,370 Q 158,358 214,372 Q 270,386 326,370 Q 382,354 436,370 Q 488,384 540,371 Q 564,364 572,367" fill="none" stroke="#4dbedd" stroke-width="3" stroke-linecap="round" style="fill:none;stroke:rgb(77, 190, 221);color:rgb(0, 0, 0);stroke-width:4px;stroke-linecap:round;stroke-linejoin:miter;opacity:1;font-family:&quot;Anthropic Sans&quot;, -apple-system, BlinkMacSystemFont, &quot;Segoe UI&quot;, sans-serif;font-size:16px;font-weight:400;text-anchor:start;dominant-baseline:auto"/>
  <path d="M 100,390 Q 156,376 214,391 Q 272,406 330,390 Q 388,374 442,390 Q 492,404 540,391 Q 562,384 572,387" fill="none" stroke="#3db3d2" stroke-width="3" stroke-linecap="round" style="fill:none;stroke:rgb(61, 179, 210);color:rgb(0, 0, 0);stroke-width:4px;stroke-linecap:round;stroke-linejoin:miter;opacity:1;font-family:&quot;Anthropic Sans&quot;, -apple-system, BlinkMacSystemFont, &quot;Segoe UI&quot;, sans-serif;font-size:16px;font-weight:400;text-anchor:start;dominant-baseline:auto"/>
  <path d="M 96,412 Q 154,396 214,412 Q 274,428 332,411 Q 390,394 446,411 Q 494,424 540,413 Q 562,405 572,408" fill="none" stroke="#2ea6c6" stroke-width="3.2" stroke-linecap="round" style="fill:none;stroke:rgb(46, 166, 198);color:rgb(0, 0, 0);stroke-width:4.266667px;stroke-linecap:round;stroke-linejoin:miter;opacity:1;font-family:&quot;Anthropic Sans&quot;, -apple-system, BlinkMacSystemFont, &quot;Segoe UI&quot;, sans-serif;font-size:16px;font-weight:400;text-anchor:start;dominant-baseline:auto"/>
  <path d="M 96,436 Q 154,418 216,435 Q 278,452 336,435 Q 394,418 448,435 Q 496,448 540,437 Q 562,429 572,432" fill="none" stroke="#2097b8" stroke-width="3.2" stroke-linecap="round" style="fill:none;stroke:rgb(32, 151, 184);color:rgb(0, 0, 0);stroke-width:4.266667px;stroke-linecap:round;stroke-linejoin:miter;opacity:1;font-family:&quot;Anthropic Sans&quot;, -apple-system, BlinkMacSystemFont, &quot;Segoe UI&quot;, sans-serif;font-size:16px;font-weight:400;text-anchor:start;dominant-baseline:auto"/>
  <path d="M 98,462 Q 156,442 220,460 Q 284,478 342,460 Q 400,442 452,459 Q 498,473 540,462 Q 562,454 572,457" fill="none" stroke="#1688aa" stroke-width="3.4" stroke-linecap="round" style="fill:none;stroke:rgb(22, 136, 170);color:rgb(0, 0, 0);stroke-width:4.533333px;stroke-linecap:round;stroke-linejoin:miter;opacity:1;font-family:&quot;Anthropic Sans&quot;, -apple-system, BlinkMacSystemFont, &quot;Segoe UI&quot;, sans-serif;font-size:16px;font-weight:400;text-anchor:start;dominant-baseline:auto"/>
  <path d="M 104,490 Q 162,468 228,487 Q 294,506 352,487 Q 410,468 458,486 Q 500,500 540,489 Q 562,482 572,484" fill="none" stroke="#0e7898" stroke-width="3.4" stroke-linecap="round" style="fill:none;stroke:rgb(14, 120, 152);color:rgb(0, 0, 0);stroke-width:4.533333px;stroke-linecap:round;stroke-linejoin:miter;opacity:1;font-family:&quot;Anthropic Sans&quot;, -apple-system, BlinkMacSystemFont, &quot;Segoe UI&quot;, sans-serif;font-size:16px;font-weight:400;text-anchor:start;dominant-baseline:auto"/>
  <path d="M 114,520 Q 172,496 240,516 Q 308,536 362,516 Q 418,496 464,514 Q 504,528 540,518 Q 562,510 572,513" fill="none" stroke="#085e7a" stroke-width="3.6" stroke-linecap="round" style="fill:none;stroke:rgb(8, 94, 122);color:rgb(0, 0, 0);stroke-width:4.8px;stroke-linecap:round;stroke-linejoin:miter;opacity:1;font-family:&quot;Anthropic Sans&quot;, -apple-system, BlinkMacSystemFont, &quot;Segoe UI&quot;, sans-serif;font-size:16px;font-weight:400;text-anchor:start;dominant-baseline:auto"/>
  <path d="M 130,552 Q 188,526 258,548 Q 328,570 376,548 Q 424,526 468,546 Q 506,560 540,550 Q 562,542 572,545" fill="none" stroke="#054a62" stroke-width="3.6" stroke-linecap="round" style="fill:none;stroke:rgb(5, 74, 98);color:rgb(0, 0, 0);stroke-width:4.8px;stroke-linecap:round;stroke-linejoin:miter;opacity:1;font-family:&quot;Anthropic Sans&quot;, -apple-system, BlinkMacSystemFont, &quot;Segoe UI&quot;, sans-serif;font-size:16px;font-weight:400;text-anchor:start;dominant-baseline:auto"/>
  <path d="M 154,578 Q 212,550 282,574 Q 352,598 394,574 Q 434,550 472,570 Q 508,584 540,575" fill="none" stroke="#02334a" stroke-width="3.8" stroke-linecap="round" style="fill:none;stroke:rgb(2, 51, 74);color:rgb(0, 0, 0);stroke-width:5.066667px;stroke-linecap:round;stroke-linejoin:miter;opacity:1;font-family:&quot;Anthropic Sans&quot;, -apple-system, BlinkMacSystemFont, &quot;Segoe UI&quot;, sans-serif;font-size:16px;font-weight:400;text-anchor:start;dominant-baseline:auto"/>

</g>

</svg>